<?xml version="1.0" encoding="UTF-8"?>
<svg id="Camada_2" data-name="Camada 2" xmlns="http://www.w3.org/2000/svg" viewBox="0 0 836.03 272">
  <defs>
    <style>
      .cls-1 {
        fill: #49160a;
      }

      .cls-2 {
        fill: #ff7b57;
      }
    </style>
  </defs>
  <g id="Camada_1-2" data-name="Camada 1">
    <g>
      <g>
        <path class="cls-1" d="M251.75,91.52V5.94h19.78l1.67,24.99-.21,18.32v42.27h-21.24ZM272.99,54.66l-.62-18.95c0-2.92.55-6.07,1.67-9.47,1.11-3.4,2.95-6.63,5.52-9.68,2.57-3.05,5.93-5.59,10.1-7.6,4.16-2.01,9.3-3.02,15.41-3.02h3.12v23.74h-3.12c-5.97,0-11.04.45-15.2,1.35-4.16.9-7.46,2.33-9.89,4.27-2.43,1.95-4.2,4.51-5.31,7.7-1.11,3.2-1.67,7.08-1.67,11.66Z"/>
        <path class="cls-1" d="M355.45,93.6c-9.44,0-17.39-1.87-23.84-5.62s-11.28-8.92-14.47-15.51c-3.2-6.59-4.79-14.12-4.79-22.59s1.59-16.21,4.79-22.8c3.19-6.59,8.02-11.76,14.47-15.51,6.45-3.75,14.47-5.62,24.05-5.62,14.02,0,24.67,4.03,31.96,12.08,7.29,8.05,10.93,18.67,10.93,31.86,0,8.19-1.53,15.62-4.58,22.28-3.05,6.66-7.78,11.9-14.16,15.72-6.39,3.82-14.51,5.73-24.36,5.73ZM355.45,75.69c6.25,0,11-1.32,14.26-3.96,3.26-2.64,5.45-6,6.56-10.1,1.11-4.09,1.67-8.23,1.67-12.39,0-4.44-.56-8.67-1.67-12.7-1.11-4.02-3.3-7.39-6.56-10.1-3.26-2.71-8.02-4.06-14.26-4.06s-10.8,1.35-14.06,4.06c-3.26,2.71-5.49,6.07-6.66,10.1-1.18,4.03-1.77,8.26-1.77,12.7,0,4.16.59,8.3,1.77,12.39,1.18,4.1,3.4,7.46,6.66,10.1,3.26,2.64,7.95,3.96,14.06,3.96Z"/>
        <path class="cls-1" d="M444.99,93.6c-2.92,0-6.11-.38-9.58-1.15-3.47-.76-6.94-1.94-10.41-3.54-3.47-1.59-6.63-3.64-9.47-6.14-2.85-2.5-5.1-5.41-6.77-8.75-1.67-3.33-2.5-7.22-2.5-11.66h19.57c0,.14.1,1.04.31,2.71.21,1.67.87,3.51,1.98,5.52,1.11,2.01,2.92,3.78,5.41,5.31,2.5,1.53,6.11,2.29,10.83,2.29,3.75,0,6.8-.48,9.16-1.46,2.36-.97,4.13-2.19,5.31-3.64,1.18-1.46,1.77-3.09,1.77-4.89,0-3.05-1.28-5.45-3.85-7.18-2.57-1.73-5.87-3.16-9.89-4.27-4.03-1.11-8.3-2.25-12.81-3.44-4.51-1.18-8.75-2.74-12.7-4.69-3.96-1.94-7.18-4.61-9.68-8.02-2.5-3.4-3.75-7.81-3.75-13.22,0-8.05,3.19-14.09,9.58-18.12,6.38-4.02,14.5-6.04,24.36-6.04,5.27,0,10.24.59,14.89,1.77,4.65,1.18,8.78,3.05,12.39,5.62,3.61,2.57,6.49,5.83,8.64,9.79,2.15,3.96,3.23,8.78,3.23,14.47h-19.57c.14-3.19-.38-5.79-1.56-7.81-1.18-2.01-2.74-3.57-4.69-4.69-1.95-1.11-4.03-1.87-6.25-2.29-2.22-.42-4.37-.62-6.45-.62-5,0-8.78.87-11.35,2.6-2.57,1.74-3.85,3.99-3.85,6.77,0,3.2,1.28,5.66,3.85,7.39,2.57,1.74,5.9,3.16,10,4.27,4.09,1.11,8.43,2.26,13.01,3.44,4.58,1.18,8.88,2.74,12.91,4.69,4.02,1.95,7.32,4.55,9.89,7.81,2.57,3.26,3.85,7.6,3.85,13.01s-1.49,9.89-4.48,13.43c-2.99,3.54-7.15,6.21-12.49,8.02-5.35,1.8-11.63,2.71-18.84,2.71Z"/>
        <path class="cls-1" d="M518.91,93.6c-7.78,0-14.09-1.84-18.95-5.52-4.86-3.68-8.37-8.81-10.52-15.41-2.15-6.59-3.23-14.19-3.23-22.8s1.11-16.45,3.33-23.11c2.22-6.66,5.73-11.83,10.52-15.51,4.79-3.68,11.07-5.52,18.84-5.52,5,0,9.19.7,12.6,2.08,3.4,1.39,6.18,3.06,8.33,5,2.15,1.95,3.78,3.85,4.89,5.73,1.11,1.87,1.87,3.37,2.29,4.48h.42V5.94h21.86v85.58h-18.32l-3.54-13.95h-.42c-.28.97-1.04,2.33-2.29,4.06-1.25,1.74-2.95,3.54-5.1,5.41-2.15,1.87-4.93,3.44-8.33,4.69-3.4,1.25-7.53,1.87-12.39,1.87ZM527.65,75.69c5.13,0,9.16-1.11,12.08-3.33,2.92-2.22,4.93-5.31,6.04-9.27,1.11-3.96,1.67-8.29,1.67-13.01,0-5.13-.59-9.61-1.77-13.43-1.18-3.82-3.2-6.8-6.04-8.95-2.85-2.15-6.84-3.23-11.97-3.23-5.41,0-9.61,1.18-12.6,3.54-2.99,2.36-5.07,5.45-6.25,9.27-1.18,3.82-1.77,8.09-1.77,12.81s.59,9.03,1.77,12.91c1.18,3.89,3.26,6.98,6.25,9.27,2.98,2.29,7.18,3.44,12.6,3.44Z"/>
        <path class="cls-1" d="M578.66,91.52V5.94h18.12l3.54,18.53h.42c.14-.42.66-1.56,1.56-3.44.9-1.87,2.43-3.99,4.58-6.35,2.15-2.36,5.07-4.41,8.75-6.14,3.68-1.73,8.29-2.6,13.85-2.6,6.11,0,11.07,1.01,14.89,3.02,3.82,2.01,6.84,4.65,9.06,7.91,2.22,3.26,3.78,6.87,4.68,10.83.9,3.96,1.46,7.88,1.67,11.77.21,3.89.31,7.43.31,10.62v41.44h-20.82v-41.65c0-4.58-.45-8.75-1.35-12.49-.9-3.75-2.64-6.8-5.21-9.16-2.57-2.36-6.56-3.54-11.97-3.54s-9.79,1.28-12.7,3.85c-2.92,2.57-4.93,5.8-6.04,9.68-1.11,3.89-1.67,8.05-1.67,12.49v40.81h-21.66Z"/>
        <path class="cls-1" d="M699.85,93.6c-7.78,0-14.09-1.84-18.95-5.52-4.86-3.68-8.36-8.81-10.51-15.41-2.15-6.59-3.23-14.19-3.23-22.8s1.11-16.45,3.33-23.11c2.22-6.66,5.73-11.83,10.51-15.51,4.79-3.68,11.07-5.52,18.85-5.52,5,0,9.19.7,12.6,2.08,3.4,1.39,6.17,3.06,8.33,5,2.15,1.95,3.78,3.85,4.89,5.73,1.11,1.87,1.87,3.37,2.29,4.48h.42V5.94h21.86v85.58h-18.32l-3.54-13.95h-.42c-.28.97-1.04,2.33-2.29,4.06-1.25,1.74-2.95,3.54-5.1,5.41-2.15,1.87-4.93,3.44-8.33,4.69-3.4,1.25-7.53,1.87-12.39,1.87ZM708.6,75.69c5.13,0,9.16-1.11,12.08-3.33,2.92-2.22,4.93-5.31,6.04-9.27,1.11-3.96,1.67-8.29,1.67-13.01,0-5.13-.59-9.61-1.77-13.43-1.18-3.82-3.19-6.8-6.04-8.95-2.85-2.15-6.84-3.23-11.97-3.23-5.41,0-9.61,1.18-12.6,3.54-2.99,2.36-5.07,5.45-6.25,9.27-1.18,3.82-1.77,8.09-1.77,12.81s.59,9.03,1.77,12.91c1.18,3.89,3.26,6.98,6.25,9.27,2.98,2.29,7.18,3.44,12.6,3.44Z"/>
        <path class="cls-1" d="M250.71,218.34v-85.58h20.2l.42,18.53h.42c.14-.55.66-1.77,1.56-3.64.9-1.87,2.36-3.96,4.37-6.25,2.01-2.29,4.61-4.3,7.81-6.04,3.19-1.73,7.15-2.6,11.87-2.6s8.4.9,11.45,2.71c3.05,1.81,5.52,4.1,7.39,6.87,1.87,2.78,3.23,5.76,4.06,8.95h.42c.14-.55.76-1.8,1.87-3.75,1.11-1.94,2.71-4.06,4.79-6.35,2.08-2.29,4.82-4.27,8.22-5.93,3.4-1.67,7.53-2.5,12.39-2.5,5.41,0,9.89,1.15,13.43,3.44,3.54,2.29,6.35,5.21,8.43,8.75,2.08,3.54,3.64,7.32,4.69,11.35,1.04,4.03,1.7,7.88,1.98,11.56.28,3.68.42,6.7.42,9.06v41.44h-20.61v-41.65c0-2.22-.1-4.75-.31-7.6-.21-2.84-.76-5.62-1.67-8.33-.9-2.71-2.39-4.93-4.48-6.66-2.08-1.73-5-2.6-8.75-2.6-4.58,0-8.09,1.28-10.52,3.85-2.43,2.57-4.1,5.83-5,9.79-.9,3.96-1.35,8.09-1.35,12.39v40.81h-20.82v-41.65c0-2.22-.07-4.75-.21-7.6-.14-2.84-.7-5.62-1.67-8.33-.97-2.71-2.5-4.93-4.58-6.66-2.08-1.73-5-2.6-8.75-2.6-4.44,0-7.91,1.28-10.41,3.85-2.5,2.57-4.2,5.83-5.1,9.79-.9,3.96-1.35,8.09-1.35,12.39v40.81h-20.61Z"/>
        <path class="cls-1" d="M430.83,220.42c-9.44,0-17.39-1.87-23.84-5.62-6.45-3.75-11.28-8.92-14.47-15.51-3.2-6.59-4.79-14.12-4.79-22.59s1.59-16.21,4.79-22.8c3.19-6.59,8.02-11.76,14.47-15.51s14.47-5.62,24.05-5.62c14.02,0,24.67,4.03,31.96,12.08,7.29,8.05,10.93,18.67,10.93,31.86,0,8.19-1.53,15.62-4.58,22.28-3.05,6.66-7.78,11.9-14.16,15.72-6.39,3.82-14.51,5.73-24.36,5.73ZM430.83,202.51c6.25,0,11-1.32,14.26-3.96,3.26-2.64,5.45-6,6.56-10.1,1.11-4.09,1.67-8.23,1.67-12.39,0-4.44-.56-8.67-1.67-12.7-1.11-4.02-3.3-7.39-6.56-10.1-3.26-2.71-8.02-4.06-14.26-4.06s-10.8,1.35-14.06,4.06c-3.26,2.71-5.49,6.07-6.66,10.1-1.18,4.03-1.77,8.26-1.77,12.7,0,4.16.59,8.3,1.77,12.39,1.18,4.1,3.4,7.46,6.66,10.1,3.26,2.64,7.95,3.96,14.06,3.96Z"/>
        <path class="cls-1" d="M487.88,218.34v-85.58h19.78l1.67,24.99-.21,18.32v42.27h-21.24ZM509.12,181.48l-.62-18.95c0-2.92.55-6.07,1.67-9.47,1.11-3.4,2.95-6.63,5.52-9.68,2.57-3.05,5.93-5.59,10.1-7.6,4.16-2.01,9.3-3.02,15.41-3.02h3.12v23.74h-3.12c-5.97,0-11.04.45-15.2,1.35-4.16.9-7.46,2.33-9.89,4.27-2.43,1.95-4.2,4.51-5.31,7.7-1.11,3.2-1.67,7.08-1.67,11.66Z"/>
        <path class="cls-1" d="M594.49,220.42c-9.86,0-17.87-2.11-24.05-6.35-6.18-4.23-10.76-9.68-13.74-16.35-2.99-6.66-4.55-13.6-4.69-20.82-.14-8.61,1.49-16.27,4.89-23.01,3.4-6.73,8.26-12.01,14.58-15.83,6.32-3.82,13.78-5.73,22.38-5.73,7.63,0,14.5,1.67,20.61,5,6.11,3.33,10.93,7.98,14.47,13.95,3.54,5.97,5.38,13.12,5.52,21.45v5.41h-62.26c0,7.91,1.98,13.99,5.93,18.22,3.96,4.24,9.27,6.35,15.93,6.35,5.27,0,9.68-1.32,13.22-3.96,3.54-2.64,5.65-6.11,6.35-10.41h20.62c-.56,5.97-2.5,11.38-5.83,16.24-3.33,4.86-7.85,8.71-13.54,11.56-5.69,2.84-12.49,4.27-20.41,4.27ZM572.84,168.57h40.4c-.14-.97-.42-2.5-.83-4.58s-1.32-4.23-2.71-6.45c-1.39-2.22-3.4-4.09-6.04-5.62-2.64-1.53-6.04-2.29-10.2-2.29s-7.57.7-10.2,2.08c-2.64,1.39-4.65,3.12-6.04,5.21-1.39,2.08-2.43,4.16-3.12,6.25-.7,2.08-1.11,3.89-1.25,5.41Z"/>
        <path class="cls-1" d="M661.75,121.72c-4.58,0-7.67-1.18-9.27-3.54-1.6-2.36-2.39-5.07-2.39-8.12s.8-5.73,2.39-8.02c1.59-2.29,4.68-3.44,9.27-3.44s7.81,1.15,9.27,3.44c1.46,2.29,2.19,4.96,2.19,8.02s-.73,5.76-2.19,8.12c-1.46,2.36-4.55,3.54-9.27,3.54ZM651.13,218.34v-85.58h21.24v85.58h-21.24Z"/>
        <path class="cls-1" d="M689.02,218.34v-85.58h19.78l1.67,24.99-.21,18.32v42.27h-21.24ZM710.26,181.48l-.62-18.95c0-2.92.55-6.07,1.67-9.47,1.11-3.4,2.95-6.63,5.52-9.68,2.57-3.05,5.93-5.59,10.1-7.6,4.16-2.01,9.3-3.02,15.41-3.02h3.12v23.74h-3.12c-5.97,0-11.04.45-15.2,1.35-4.16.9-7.46,2.33-9.89,4.27-2.43,1.95-4.2,4.51-5.31,7.7-1.11,3.2-1.67,7.08-1.67,11.66Z"/>
        <path class="cls-1" d="M785.64,220.42c-7.78,0-14.09-1.84-18.95-5.52-4.86-3.68-8.37-8.81-10.52-15.41-2.15-6.59-3.23-14.19-3.23-22.8s1.11-16.45,3.33-23.11c2.22-6.66,5.73-11.83,10.52-15.51,4.79-3.68,11.07-5.52,18.84-5.52,5,0,9.2.7,12.6,2.08,3.4,1.39,6.17,3.06,8.33,5,2.15,1.95,3.78,3.85,4.89,5.73,1.11,1.87,1.87,3.37,2.29,4.48h.42v-17.07h21.86v85.58h-18.32l-3.54-13.95h-.42c-.28.97-1.04,2.33-2.29,4.06-1.25,1.74-2.95,3.54-5.1,5.41-2.15,1.87-4.93,3.44-8.33,4.69-3.4,1.25-7.53,1.87-12.39,1.87ZM794.39,202.51c5.13,0,9.16-1.11,12.08-3.33,2.92-2.22,4.93-5.31,6.04-9.27,1.11-3.96,1.67-8.29,1.67-13.01,0-5.13-.59-9.61-1.77-13.43-1.18-3.82-3.2-6.8-6.04-8.95-2.85-2.15-6.84-3.23-11.97-3.23-5.41,0-9.61,1.18-12.6,3.54-2.99,2.36-5.07,5.45-6.25,9.27-1.18,3.82-1.77,8.09-1.77,12.81s.59,9.03,1.77,12.91c1.18,3.89,3.26,6.98,6.25,9.27,2.98,2.29,7.18,3.44,12.6,3.44Z"/>
      </g>
      <g>
        <path class="cls-2" d="M104.38,58.11c-1.64,0-2.91.67-3.84,1.99-.92,1.33-1.53,3.07-1.84,5.22-.31,2.15-.26,4.45.15,6.9.41,2.45,1.23,4.81,2.45,7.06,1.23-2.45,2.35-4.91,3.37-7.36,1.02-2.45,1.74-4.7,2.15-6.75.41-2.04.41-3.73,0-5.06-.41-1.33-1.23-1.99-2.45-1.99Z"/>
        <path class="cls-2" d="M184,0H40C17.91,0,0,17.91,0,40v144c0,22.09,17.91,40,40,40h144c22.09,0,40-17.91,40-40V40c0-22.09-17.91-40-40-40ZM158.68,139.41c-3.07,4.29-7.42,9.36-13.04,15.19-5.63,5.83-11.86,11.04-18.71,15.65-6.85,4.6-13.86,7.93-21.01,9.97-7.16,2.04-13.8,1.43-19.94-1.84-5.32-2.65-8.28-6.85-8.9-12.58-.61-5.72.41-11.91,3.07-18.56,2.66-6.64,6.44-13.35,11.35-20.09,4.91-6.75,10.22-12.47,15.95-17.18,1.63-1.43,2.5-2.4,2.61-2.91.1-.51-1.99-1.58-6.29-3.22-5.11,7.98-10.08,15.34-14.88,22.09-4.81,6.75-8.03,11.25-9.66,13.5-1.64,2.05-3.53,3.12-5.68,3.22-2.15.11-4.04-.36-5.68-1.38-1.64-1.02-2.81-2.4-3.53-4.14-.71-1.74-.46-3.42.77-5.06,4.09-4.7,8.48-10.58,13.19-17.64,4.7-7.06,9-13.55,12.88-19.48-2.45-3.07-4.35-6.8-5.68-11.2-1.33-4.4-2.05-8.84-2.15-13.35-.11-4.5.46-8.74,1.69-12.73,1.23-3.99,3.37-7.21,6.44-9.66,4.5-3.47,8.79-5.26,12.88-5.37,4.09-.1,7.56.97,10.43,3.22,2.86,2.25,4.96,5.37,6.29,9.36,1.33,3.99,1.58,8.24.77,12.73-.41,2.66-1.43,5.73-3.07,9.2-1.64,3.48-3.58,7.26-5.83,11.35,2.45.61,5.21.61,8.28,0,3.27-.61,6.03-.46,8.28.46,2.25.92,3.99,2.2,5.21,3.83,1.23,1.64,1.84,3.43,1.84,5.37s-.61,3.53-1.84,4.76c-.82.82-2.45,2.66-4.91,5.52-2.45,2.87-5.27,6.29-8.44,10.28-3.17,3.99-6.39,8.24-9.66,12.73-3.27,4.5-6.09,8.8-8.44,12.88-2.35,4.09-4.09,7.72-5.21,10.89-1.13,3.17-.97,5.27.46,6.29,2.25,2.05,5.42,2.25,9.51.61,4.09-1.63,8.38-4.14,12.88-7.52,4.5-3.37,8.9-7.16,13.19-11.35,4.29-4.19,7.77-7.92,10.43-11.2,1.43-1.63,3.22-2.5,5.37-2.61,2.15-.1,4.09.26,5.83,1.07,1.74.82,3.01,2.05,3.83,3.68.82,1.64.51,3.37-.92,5.21Z"/>
      </g>
      <g>
        <path class="cls-1" d="M254.86,263.95h-4.49v-24.77h4.49v24.77ZM254.2,239.17h6.12c2.76,0,4.9.69,6.42,2.07,1.52,1.38,2.29,3.46,2.29,6.25,0,2.44-.79,4.34-2.35,5.72-1.57,1.38-3.69,2.07-6.36,2.07h-6.12v-3.3h5.5c1.58,0,2.86-.38,3.83-1.14.97-.76,1.45-1.91,1.45-3.43s-.48-2.71-1.43-3.45c-.95-.75-2.24-1.12-3.85-1.12h-5.5v-3.65Z"/>
        <path class="cls-1" d="M278.7,264.39c-.62,0-1.29-.08-2.02-.24-.73-.16-1.47-.41-2.2-.75-.73-.34-1.4-.77-2-1.3-.6-.53-1.08-1.14-1.43-1.85-.35-.7-.53-1.52-.53-2.46h4.14s.02.22.07.57.18.74.42,1.17c.23.43.62.8,1.14,1.12.53.32,1.29.48,2.29.48.79,0,1.44-.1,1.94-.31.5-.21.87-.46,1.12-.77.25-.31.37-.65.37-1.03,0-.64-.27-1.15-.81-1.52-.54-.37-1.24-.67-2.09-.9-.85-.23-1.75-.48-2.71-.73-.95-.25-1.85-.58-2.68-.99-.84-.41-1.52-.98-2.05-1.69s-.79-1.65-.79-2.79c0-1.7.67-2.98,2.02-3.83,1.35-.85,3.06-1.28,5.15-1.28,1.11,0,2.16.12,3.15.37.98.25,1.85.65,2.62,1.19.76.54,1.37,1.23,1.83,2.07.45.84.68,1.86.68,3.06h-4.14c.03-.67-.08-1.22-.33-1.65-.25-.42-.58-.75-.99-.99-.41-.23-.85-.4-1.32-.48-.47-.09-.92-.13-1.36-.13-1.06,0-1.86.18-2.4.55-.54.37-.81.84-.81,1.43,0,.68.27,1.2.81,1.56.54.37,1.25.67,2.11.9.86.23,1.78.48,2.75.73.97.25,1.88.58,2.73.99.85.41,1.55.96,2.09,1.65.54.69.81,1.61.81,2.75s-.32,2.09-.95,2.84c-.63.75-1.51,1.31-2.64,1.69-1.13.38-2.46.57-3.98.57Z"/>
        <path class="cls-1" d="M291.55,243.53c-.97,0-1.62-.25-1.96-.75-.34-.5-.51-1.07-.51-1.72s.17-1.21.51-1.69c.34-.48.99-.73,1.96-.73s1.65.24,1.96.73c.31.48.46,1.05.46,1.69s-.15,1.22-.46,1.72c-.31.5-.96.75-1.96.75ZM289.31,263.95v-18.08h4.49v18.08h-4.49Z"/>
        <path class="cls-1" d="M305.81,264.39c-1.7,0-3.24-.35-4.62-1.03-1.38-.69-2.48-1.72-3.3-3.08-.82-1.36-1.23-3.03-1.23-4.99.06-1.96.49-3.65,1.3-5.06.81-1.41,1.9-2.49,3.28-3.26,1.38-.76,2.93-1.14,4.66-1.14,1.82,0,3.36.35,4.62,1.03,1.26.69,2.24,1.58,2.95,2.66.7,1.09,1.1,2.23,1.19,3.43h-4.14c-.21-1.06-.69-1.86-1.45-2.42-.76-.56-1.78-.84-3.04-.84-1.06,0-1.95.22-2.68.66-.73.44-1.3,1.05-1.69,1.83-.4.78-.59,1.69-.59,2.75,0,1.7.42,3.06,1.25,4.07.84,1.01,2.08,1.52,3.72,1.52,1.11,0,2.09-.29,2.93-.88.84-.59,1.36-1.45,1.56-2.6h4.14c-.09,1.26-.49,2.45-1.21,3.56-.72,1.12-1.71,2.02-2.99,2.73-1.28.7-2.82,1.06-4.64,1.06Z"/>
        <path class="cls-1" d="M325.78,264.39c-2,0-3.67-.4-5.04-1.19s-2.38-1.88-3.06-3.28c-.68-1.39-1.01-2.98-1.01-4.77s.34-3.42,1.01-4.82c.67-1.39,1.69-2.49,3.06-3.28s3.06-1.19,5.08-1.19c2.96,0,5.21.85,6.75,2.55,1.54,1.7,2.31,3.95,2.31,6.73,0,1.73-.32,3.3-.97,4.71-.65,1.41-1.64,2.52-2.99,3.32s-3.07,1.21-5.15,1.21ZM325.78,260.6c1.32,0,2.32-.28,3.01-.84.69-.56,1.15-1.27,1.39-2.13.24-.86.35-1.74.35-2.62,0-.94-.12-1.83-.35-2.68-.23-.85-.7-1.56-1.39-2.13s-1.69-.86-3.01-.86-2.28.29-2.97.86c-.69.57-1.16,1.28-1.41,2.13-.25.85-.37,1.75-.37,2.68,0,.88.12,1.75.37,2.62.25.87.72,1.58,1.41,2.13.69.56,1.68.84,2.97.84ZM327.1,243.93h-2.02v-.62l1.98-4.4h3.78v.84l-3.74,4.18Z"/>
        <path class="cls-1" d="M338.1,263.95v-24.77h4.4v24.77h-4.4Z"/>
        <path class="cls-1" d="M354.29,264.39c-2,0-3.67-.4-5.04-1.19s-2.38-1.88-3.06-3.28c-.68-1.39-1.01-2.98-1.01-4.77s.34-3.42,1.01-4.82c.67-1.39,1.69-2.49,3.06-3.28s3.06-1.19,5.08-1.19c2.96,0,5.21.85,6.75,2.55,1.54,1.7,2.31,3.95,2.31,6.73,0,1.73-.32,3.3-.97,4.71-.65,1.41-1.64,2.52-2.99,3.32s-3.07,1.21-5.15,1.21ZM354.29,260.6c1.32,0,2.32-.28,3.01-.84.69-.56,1.15-1.27,1.39-2.13.24-.86.35-1.74.35-2.62,0-.94-.12-1.83-.35-2.68-.23-.85-.7-1.56-1.39-2.13s-1.69-.86-3.01-.86-2.28.29-2.97.86c-.69.57-1.16,1.28-1.41,2.13-.25.85-.37,1.75-.37,2.68,0,.88.12,1.75.37,2.62.25.87.72,1.58,1.41,2.13.69.56,1.68.84,2.97.84Z"/>
        <path class="cls-1" d="M371.19,272v-4.22h7.92v-7.04h-.09c-.03.06-.16.28-.4.66-.24.38-.58.81-1.03,1.28s-1.06.87-1.8,1.21-1.68.51-2.79.51c-1.76,0-3.2-.39-4.31-1.17s-1.93-1.85-2.44-3.23c-.51-1.38-.77-2.98-.77-4.8s.26-3.56.79-4.95c.53-1.39,1.35-2.47,2.46-3.23,1.12-.76,2.54-1.14,4.27-1.14,1.17,0,2.14.18,2.9.55.76.37,1.36.8,1.8,1.3.44.5.75.95.95,1.36.19.41.3.66.33.75h.09v-3.96h4.66v19.62c0,1.61-.21,2.9-.64,3.85-.43.95-1.06,1.63-1.91,2.05-.85.41-1.95.62-3.3.62h-6.69ZM374.4,260.6c1.11,0,2.01-.23,2.68-.7s1.17-1.11,1.5-1.91c.32-.81.48-1.74.48-2.79s-.15-1.94-.46-2.75c-.31-.81-.79-1.44-1.45-1.89-.66-.45-1.55-.68-2.66-.68-1.2,0-2.15.25-2.84.75-.69.5-1.17,1.16-1.43,1.98-.26.82-.4,1.69-.4,2.6s.12,1.78.37,2.62c.25.84.71,1.51,1.39,2.02s1.61.77,2.82.77Z"/>
        <path class="cls-1" d="M392.79,264.39c-1.64,0-2.98-.39-4-1.17-1.03-.78-1.77-1.86-2.22-3.26-.46-1.39-.68-3-.68-4.82s.23-3.48.7-4.88c.47-1.41,1.21-2.5,2.22-3.28,1.01-.78,2.34-1.17,3.98-1.17,1.06,0,1.94.15,2.66.44.72.29,1.3.65,1.76,1.06.45.41.8.81,1.03,1.21.23.4.4.71.48.95h.09v-3.61h4.62v18.08h-3.87l-.75-2.95h-.09c-.06.21-.22.49-.48.86-.26.37-.62.75-1.08,1.14-.46.4-1.04.73-1.76.99-.72.26-1.59.4-2.62.4ZM394.64,260.6c1.08,0,1.94-.23,2.55-.7.62-.47,1.04-1.12,1.28-1.96.23-.84.35-1.75.35-2.75,0-1.08-.12-2.03-.37-2.84-.25-.81-.68-1.44-1.28-1.89-.6-.45-1.45-.68-2.53-.68-1.14,0-2.03.25-2.66.75-.63.5-1.07,1.15-1.32,1.96-.25.81-.37,1.71-.37,2.71s.12,1.91.37,2.73c.25.82.69,1.47,1.32,1.96.63.48,1.52.73,2.66.73Z"/>
        <path class="cls-1" d="M426.85,264.39c-2.32,0-4.42-.48-6.29-1.43-1.88-.95-3.37-2.37-4.47-4.25-1.1-1.88-1.65-4.22-1.65-7.04.03-2.76.59-5.1,1.67-7.04s2.57-3.4,4.47-4.4c1.89-1,4.03-1.5,6.4-1.5s4.24.41,5.85,1.23c1.61.82,2.91,1.94,3.89,3.34.98,1.41,1.62,2.99,1.91,4.75h-4.62c-.21-1.29-.68-2.31-1.43-3.06s-1.62-1.28-2.62-1.58c-1-.31-2-.46-2.99-.46-2.61,0-4.61.73-6.01,2.2-1.39,1.47-2.09,3.54-2.09,6.2,0,2.85.68,5.03,2.05,6.56,1.36,1.53,3.35,2.29,5.96,2.29,1.08,0,2.14-.17,3.17-.51,1.03-.34,1.91-.89,2.64-1.67.73-.78,1.2-1.83,1.41-3.15h4.66c-.32,1.79-.97,3.41-1.94,4.86-.97,1.45-2.28,2.59-3.94,3.41s-3.67,1.23-6.05,1.23Z"/>
        <path class="cls-1" d="M441.76,263.95v-24.77h4.4v24.77h-4.4Z"/>
        <path class="cls-1" d="M449.95,263.95v-18.08h4.49v18.08h-4.49ZM453.25,243.93h-2.02v-.62l1.98-4.4h3.78v.84l-3.74,4.18Z"/>
        <path class="cls-1" d="M457.78,263.95v-18.08h3.83l.75,3.92h.09c.03-.09.14-.33.33-.73.19-.4.51-.84.97-1.34.46-.5,1.07-.93,1.85-1.3.78-.37,1.75-.55,2.93-.55,1.29,0,2.34.21,3.15.64s1.44.98,1.91,1.67c.47.69.8,1.45.99,2.29.19.84.31,1.67.35,2.49.04.82.07,1.57.07,2.24v8.76h-4.4v-8.8c0-.97-.09-1.85-.29-2.64-.19-.79-.56-1.44-1.1-1.94-.54-.5-1.39-.75-2.53-.75s-2.07.27-2.68.81c-.62.54-1.04,1.23-1.28,2.05-.23.82-.35,1.7-.35,2.64v8.62h-4.58Z"/>
        <path class="cls-1" d="M480.61,243.53c-.97,0-1.62-.25-1.96-.75-.34-.5-.51-1.07-.51-1.72s.17-1.21.51-1.69c.34-.48.99-.73,1.96-.73s1.65.24,1.96.73c.31.48.46,1.05.46,1.69s-.15,1.22-.46,1.72c-.31.5-.96.75-1.96.75ZM478.37,263.95v-18.08h4.49v18.08h-4.49Z"/>
        <path class="cls-1" d="M494.87,264.39c-1.7,0-3.24-.35-4.62-1.03-1.38-.69-2.48-1.72-3.3-3.08-.82-1.36-1.23-3.03-1.23-4.99.06-1.96.49-3.65,1.3-5.06.81-1.41,1.9-2.49,3.28-3.26,1.38-.76,2.93-1.14,4.66-1.14,1.82,0,3.36.35,4.62,1.03,1.26.69,2.24,1.58,2.95,2.66.7,1.09,1.1,2.23,1.19,3.43h-4.14c-.21-1.06-.69-1.86-1.45-2.42-.76-.56-1.77-.84-3.04-.84-1.06,0-1.95.22-2.68.66-.73.44-1.3,1.05-1.69,1.83-.4.78-.59,1.69-.59,2.75,0,1.7.42,3.06,1.25,4.07.84,1.01,2.08,1.52,3.72,1.52,1.12,0,2.09-.29,2.93-.88.84-.59,1.36-1.45,1.56-2.6h4.14c-.09,1.26-.49,2.45-1.21,3.56-.72,1.12-1.72,2.02-2.99,2.73-1.28.7-2.82,1.06-4.64,1.06Z"/>
        <path class="cls-1" d="M512.56,264.39c-1.64,0-2.98-.39-4-1.17-1.03-.78-1.77-1.86-2.22-3.26-.46-1.39-.68-3-.68-4.82s.23-3.48.7-4.88c.47-1.41,1.21-2.5,2.22-3.28,1.01-.78,2.34-1.17,3.98-1.17,1.06,0,1.94.15,2.66.44.72.29,1.3.65,1.76,1.06.45.41.8.81,1.03,1.21.23.4.4.71.48.95h.09v-3.61h4.62v18.08h-3.87l-.75-2.95h-.09c-.06.21-.22.49-.48.86-.26.37-.62.75-1.08,1.14-.46.4-1.04.73-1.76.99-.72.26-1.59.4-2.62.4ZM514.41,260.6c1.08,0,1.94-.23,2.55-.7.62-.47,1.04-1.12,1.28-1.96.23-.84.35-1.75.35-2.75,0-1.08-.12-2.03-.37-2.84-.25-.81-.68-1.44-1.28-1.89-.6-.45-1.45-.68-2.53-.68-1.14,0-2.03.25-2.66.75-.63.5-1.07,1.15-1.32,1.96-.25.81-.37,1.71-.37,2.71s.12,1.91.37,2.73c.25.82.69,1.47,1.32,1.96.63.48,1.52.73,2.66.73Z"/>
      </g>
    </g>
  </g>
</svg>