<?xml version="1.0" encoding="UTF-8"?>
<svg id="Camada_2" data-name="Camada 2" xmlns="http://www.w3.org/2000/svg" viewBox="0 0 947.6 272.6">
  <defs>
    <style>
      .cls-1 {
        fill: #49160a;
      }

      .cls-2 {
        fill: #ff7b57;
      }
    </style>
  </defs>
  <g id="Camada_1-2" data-name="Camada 1">
    <g>
      <path class="cls-2" d="M2.28,175.67c8.03-9.24,16.67-20.79,25.91-34.65,9.24-13.86,17.67-26.61,25.31-38.27-4.82-6.03-8.54-13.35-11.15-22-2.62-8.63-4.02-17.37-4.22-26.21-.21-8.83.9-17.17,3.31-25.01,2.41-7.83,6.63-14.16,12.65-18.98C62.94,3.73,71.38.22,79.42.01c8.03-.2,14.86,1.91,20.49,6.33,5.62,4.42,9.74,10.55,12.35,18.38,2.61,7.83,3.11,16.18,1.51,25.01-.81,5.23-2.81,11.25-6.03,18.08-3.22,6.84-7.03,14.27-11.45,22.3,4.82,1.21,10.24,1.21,16.27,0,6.42-1.21,11.84-.9,16.27.9,4.42,1.81,7.83,4.32,10.24,7.53,2.41,3.22,3.62,6.73,3.62,10.54s-1.2,6.93-3.62,9.34c-1.61,1.61-4.82,5.23-9.64,10.85-4.82,5.63-10.35,12.35-16.57,20.19-6.23,7.83-12.56,16.18-18.98,25.01-6.43,8.84-11.96,17.28-16.57,25.31-4.62,8.04-8.04,15.17-10.24,21.39-2.21,6.23-1.91,10.35.9,12.35,4.42,4.02,10.64,4.43,18.68,1.21,8.03-3.21,16.47-8.14,25.31-14.76,8.83-6.63,17.48-14.06,25.91-22.3,8.44-8.23,15.26-15.56,20.49-22,2.81-3.21,6.33-4.91,10.55-5.12,4.22-.2,8.03.51,11.45,2.11,3.41,1.61,5.92,4.02,7.53,7.23,1.6,3.22,1,6.63-1.81,10.24-6.03,8.44-14.57,18.38-25.61,29.83-11.05,11.45-23.3,21.69-36.76,30.73-13.47,9.04-27.22,15.57-41.28,19.58-14.07,4.01-27.12,2.81-39.17-3.62-10.45-5.22-16.27-13.45-17.48-24.71-1.21-11.24.8-23.4,6.03-36.46,5.22-13.05,12.65-26.21,22.3-39.47,9.64-13.26,20.08-24.5,31.34-33.75,3.21-2.81,4.91-4.72,5.12-5.72.2-1-3.92-3.11-12.35-6.33-10.05,15.67-19.79,30.13-29.23,43.39-9.45,13.26-15.77,22.1-18.98,26.51-3.22,4.02-6.93,6.13-11.15,6.33-4.22.21-7.94-.7-11.15-2.71-3.22-2.01-5.52-4.72-6.93-8.13-1.4-3.41-.9-6.72,1.51-9.94ZM79.42,30.44c-3.22,0-5.73,1.31-7.53,3.92-1.81,2.62-3.01,6.03-3.62,10.24-.6,4.22-.51,8.74.3,13.56.8,4.82,2.41,9.45,4.82,13.86,2.41-4.82,4.61-9.64,6.63-14.46,2.01-4.82,3.41-9.24,4.22-13.26.8-4.01.8-7.33,0-9.94-.81-2.61-2.41-3.92-4.82-3.92Z"/>
      <g>
        <path class="cls-1" d="M235.23,197.89v-122.3h28.27l2.38,35.71-.3,26.19v60.41h-30.35ZM265.59,145.23l-.89-27.08c0-4.17.79-8.68,2.38-13.54,1.59-4.86,4.21-9.47,7.89-13.84,3.67-4.36,8.48-7.98,14.43-10.86,5.95-2.87,13.29-4.31,22.02-4.31h4.46v33.92h-4.46c-8.53,0-15.77.65-21.72,1.93-5.95,1.29-10.67,3.32-14.13,6.1-3.47,2.78-6,6.45-7.59,11.01-1.59,4.57-2.38,10.12-2.38,16.66Z"/>
        <path class="cls-1" d="M383.42,200.87c-13.49,0-24.85-2.68-34.07-8.03-9.22-5.36-16.12-12.74-20.68-22.17-4.57-9.42-6.84-20.18-6.84-32.29s2.28-23.16,6.84-32.58c4.56-9.42,11.46-16.81,20.68-22.17,9.22-5.36,20.68-8.03,34.37-8.03,20.03,0,35.26,5.76,45.68,17.26,10.41,11.51,15.62,26.68,15.62,45.53,0,11.71-2.19,22.32-6.55,31.84-4.37,9.52-11.11,17.01-20.23,22.47-9.13,5.45-20.73,8.18-34.81,8.18ZM383.42,175.28c8.93,0,15.72-1.88,20.38-5.65,4.66-3.77,7.78-8.58,9.37-14.43,1.59-5.85,2.38-11.75,2.38-17.71,0-6.35-.8-12.4-2.38-18.15-1.59-5.75-4.71-10.56-9.37-14.43-4.66-3.87-11.46-5.8-20.38-5.8s-15.43,1.93-20.09,5.8c-4.66,3.87-7.84,8.68-9.52,14.43-1.69,5.76-2.53,11.8-2.53,18.15,0,5.95.84,11.86,2.53,17.71,1.68,5.85,4.86,10.67,9.52,14.43,4.66,3.77,11.35,5.65,20.09,5.65Z"/>
        <path class="cls-1" d="M511.37,200.87c-4.17,0-8.73-.55-13.69-1.64-4.96-1.09-9.92-2.78-14.88-5.06-4.96-2.28-9.48-5.21-13.54-8.78-4.07-3.57-7.29-7.74-9.67-12.5-2.38-4.76-3.57-10.31-3.57-16.66h27.97c0,.2.15,1.49.45,3.87.3,2.38,1.24,5.01,2.83,7.89,1.59,2.88,4.17,5.41,7.74,7.59,3.57,2.19,8.73,3.27,15.47,3.27,5.36,0,9.72-.69,13.09-2.08,3.37-1.39,5.9-3.12,7.59-5.21,1.68-2.08,2.53-4.41,2.53-6.99,0-4.36-1.84-7.78-5.5-10.27-3.67-2.48-8.38-4.51-14.13-6.1-5.76-1.59-11.86-3.22-18.3-4.91-6.45-1.68-12.5-3.91-18.15-6.7-5.65-2.78-10.27-6.59-13.84-11.46-3.57-4.86-5.36-11.16-5.36-18.9,0-11.5,4.56-20.13,13.69-25.89,9.12-5.75,20.73-8.63,34.81-8.63,7.54,0,14.63.85,21.28,2.53,6.64,1.69,12.54,4.37,17.71,8.03,5.16,3.67,9.27,8.33,12.35,13.99,3.07,5.65,4.61,12.55,4.61,20.68h-27.97c.2-4.56-.55-8.28-2.23-11.16-1.69-2.87-3.92-5.1-6.7-6.7-2.78-1.59-5.76-2.68-8.93-3.27-3.18-.59-6.25-.89-9.22-.89-7.14,0-12.55,1.24-16.22,3.72-3.67,2.48-5.5,5.71-5.5,9.67,0,4.57,1.83,8.09,5.5,10.56,3.67,2.48,8.43,4.51,14.28,6.1,5.85,1.59,12.05,3.23,18.6,4.91,6.55,1.69,12.69,3.92,18.45,6.7,5.75,2.78,10.46,6.5,14.13,11.16,3.67,4.66,5.51,10.86,5.51,18.6s-2.13,14.13-6.4,19.19c-4.27,5.06-10.22,8.88-17.85,11.46-7.64,2.58-16.62,3.87-26.93,3.87Z"/>
        <path class="cls-1" d="M617.01,200.87c-11.11,0-20.14-2.63-27.08-7.89-6.95-5.25-11.95-12.6-15.03-22.02-3.08-9.42-4.61-20.28-4.61-32.58s1.59-23.51,4.76-33.03c3.17-9.52,8.18-16.91,15.03-22.17,6.84-5.25,15.82-7.89,26.93-7.89,7.14,0,13.14.99,18,2.98,4.86,1.99,8.82,4.37,11.9,7.14,3.07,2.78,5.4,5.51,6.99,8.18,1.59,2.68,2.68,4.81,3.27,6.4h.6v-24.4h31.24v122.3h-26.19l-5.06-19.94h-.6c-.4,1.39-1.49,3.32-3.27,5.8-1.79,2.48-4.22,5.06-7.29,7.74-3.08,2.68-7.04,4.91-11.9,6.7-4.86,1.79-10.76,2.68-17.7,2.68ZM629.51,175.28c7.34,0,13.09-1.59,17.26-4.76,4.17-3.17,7.04-7.59,8.63-13.24,1.59-5.65,2.38-11.85,2.38-18.6,0-7.34-.85-13.73-2.53-19.19-1.69-5.45-4.57-9.72-8.63-12.8-4.07-3.07-9.77-4.61-17.11-4.61-7.74,0-13.74,1.69-18,5.06-4.27,3.38-7.24,7.79-8.93,13.24-1.69,5.46-2.53,11.56-2.53,18.3s.84,12.9,2.53,18.45c1.68,5.56,4.66,9.97,8.93,13.24,4.26,3.27,10.27,4.91,18,4.91Z"/>
        <path class="cls-1" d="M702.4,197.89v-122.3h25.89l5.06,26.48h.59c.2-.59.94-2.23,2.23-4.91,1.29-2.68,3.47-5.7,6.55-9.08,3.07-3.37,7.24-6.3,12.5-8.78,5.25-2.48,11.85-3.72,19.79-3.72,8.73,0,15.82,1.44,21.27,4.31,5.46,2.88,9.77,6.65,12.95,11.31,3.17,4.66,5.4,9.82,6.69,15.47,1.29,5.65,2.08,11.26,2.38,16.81.3,5.56.45,10.61.45,15.18v59.22h-29.76v-59.51c0-6.55-.65-12.5-1.94-17.85-1.29-5.36-3.77-9.72-7.44-13.09-3.67-3.37-9.37-5.06-17.11-5.06s-13.98,1.84-18.15,5.5c-4.17,3.67-7.04,8.29-8.63,13.84-1.59,5.56-2.38,11.51-2.38,17.85v58.32h-30.95Z"/>
        <path class="cls-1" d="M875.59,200.87c-11.11,0-20.14-2.63-27.08-7.89-6.95-5.25-11.95-12.6-15.03-22.02-3.08-9.42-4.61-20.28-4.61-32.58s1.59-23.51,4.76-33.03c3.17-9.52,8.18-16.91,15.03-22.17,6.85-5.25,15.82-7.89,26.93-7.89,7.14,0,13.14.99,18,2.98,4.86,1.99,8.82,4.37,11.9,7.14,3.07,2.78,5.4,5.51,6.99,8.18,1.58,2.68,2.68,4.81,3.27,6.4h.6v-24.4h31.24v122.3h-26.19l-5.06-19.94h-.6c-.4,1.39-1.49,3.32-3.27,5.8-1.79,2.48-4.22,5.06-7.29,7.74-3.08,2.68-7.04,4.91-11.9,6.7-4.86,1.79-10.76,2.68-17.7,2.68ZM888.08,175.28c7.34,0,13.09-1.59,17.26-4.76,4.17-3.17,7.04-7.59,8.63-13.24,1.59-5.65,2.38-11.85,2.38-18.6,0-7.34-.85-13.73-2.53-19.19-1.69-5.45-4.57-9.72-8.63-12.8-4.07-3.07-9.77-4.61-17.11-4.61-7.74,0-13.74,1.69-18,5.06-4.27,3.38-7.24,7.79-8.93,13.24-1.69,5.46-2.53,11.56-2.53,18.3s.84,12.9,2.53,18.45c1.68,5.56,4.66,9.97,8.93,13.24,4.26,3.27,10.27,4.91,18,4.91Z"/>
      </g>
    </g>
  </g>
</svg>